<svg width="49" height="48" viewBox="0 0 49 48" fill="none" xmlns="http://www.w3.org/2000/svg">
<rect x="1.20117" y="0.499023" width="47" height="47" rx="23.5" fill="white"/>
<rect x="1.20117" y="0.499023" width="47" height="47" rx="23.5" stroke="#E5E7EB"/>
<path d="M32.3812 24.1813C32.3812 23.614 32.3302 23.0686 32.2358 22.5449H24.7012V25.6395H29.0066C28.8212 26.6395 28.2575 27.4868 27.4102 28.054V30.0612H29.9957C31.5085 28.6685 32.3812 26.6177 32.3812 24.1813Z" fill="#4285F4"/>
<path d="M24.7008 31.9986C26.8608 31.9986 28.6718 31.2822 29.9954 30.0603L27.4099 28.0531C26.6936 28.5331 25.7772 28.8168 24.7008 28.8168C22.6172 28.8168 20.8536 27.4095 20.2245 25.5186H17.5518V27.5913C18.8681 30.2058 21.5736 31.9986 24.7008 31.9986Z" fill="#34A853"/>
<path d="M20.2248 25.519C20.0648 25.039 19.9739 24.5262 19.9739 23.999C19.9739 23.4717 20.0648 22.959 20.2248 22.479V20.4062H17.5521C17.0103 21.4863 16.7012 22.7081 16.7012 23.999C16.7012 25.2899 17.0103 26.5117 17.5521 27.5917L20.2248 25.519Z" fill="#FBBC05"/>
<path d="M24.7008 19.1808C25.8754 19.1808 26.9299 19.5845 27.7591 20.3772L30.0536 18.0827C28.6681 16.7918 26.8572 15.999 24.7008 15.999C21.5736 15.999 18.8681 17.7918 17.5518 20.4063L20.2245 22.479C20.8536 20.5881 22.6172 19.1808 24.7008 19.1808Z" fill="#EA4335"/>
</svg>
